<?xml version="1.0" standalone="no"?>
<!DOCTYPE svg PUBLIC "-//W3C//DTD SVG 20010904//EN"
 "http://www.w3.org/TR/2001/REC-SVG-20010904/DTD/svg10.dtd">
<svg version="1.0" xmlns="http://www.w3.org/2000/svg"
 width="500.000000pt" height="500.000000pt" viewBox="0 0 500.000000 500.000000"
 preserveAspectRatio="xMidYMid meet">
<metadata>
Created by potrace 1.14, written by Peter Selinger 2001-2017
</metadata>
<g transform="translate(0.000000,500.000000) scale(0.100000,-0.100000)"
fill="#000000" stroke="none">
<path d="M2309 4626 c-2 -2 -34 -6 -71 -10 -36 -3 -72 -8 -80 -10 -7 -3 -31
-7 -53 -10 -130 -17 -372 -100 -541 -186 -109 -55 -286 -165 -330 -205 -7 -5
-31 -26 -55 -45 -70 -55 -241 -229 -301 -305 -145 -184 -276 -426 -347 -643
-23 -67 -43 -132 -45 -145 -2 -12 -11 -62 -21 -112 -9 -49 -20 -108 -24 -130
-11 -59 -11 -428 0 -505 57 -403 200 -744 440 -1046 134 -168 382 -386 534
-470 11 -6 38 -21 60 -34 162 -95 414 -191 590 -225 181 -35 236 -40 425 -40
190 0 268 7 400 34 140 29 258 65 395 120 11 4 72 33 135 65 330 164 587 392
801 711 53 80 183 325 172 325 -3 0 -1 6 5 13 14 16 57 141 88 252 24 86 28
102 39 170 3 17 7 41 10 55 28 137 26 497 -4 660 -19 102 -22 115 -47 209
-103 383 -340 754 -650 1018 -82 70 -89 76 -181 138 -264 179 -565 295 -881
339 -85 12 -453 21 -463 12z"/>
</g>
</svg>
